<svg width="100" height="100" viewBox="0 0 100 100" fill="none" xmlns="http://www.w3.org/2000/svg">
  <rect width="100" height="100" rx="24" fill="#C47C2B"/>
  <path d="M30 40C30 34.4772 34.4772 30 40 30H60C65.5228 30 70 34.4772 70 40V60C70 65.5228 65.5228 70 60 70H40C34.4772 70 30 65.5228 30 60V40Z" fill="white"/>
  <path d="M40 45H60V55C60 60.5228 55.5228 65 50 65C44.4772 65 40 60.5228 40 55V45Z" fill="#C47C2B"/>
  <path d="M60 48H65C67.2091 48 69 49.7909 69 52C69 54.2091 67.2091 56 65 56H60V48Z" fill="#C47C2B"/>
  <path d="M45 35V40M50 35V40M55 35V40" stroke="#C47C2B" stroke-width="2" stroke-linecap="round"/>
</svg>
